<svg width="0" height="0" class="hidden">
	<symbol viewBox="0 0 231 231" xmlns="http://www.w3.org/2000/svg" shape-rendering="geometricPrecision" fill-rule="evenodd" clip-rule="evenodd" id="close">
		<path d="M202 0L0 202l28 28L230 28 202 0z"/><path d="M28 0l202 202-28 28L0 28 28 0z"/>
	</symbol>

	<symbol xmlns="http://www.w3.org/2000/svg" viewBox="0 0 8 16" id="facebook"><path fill-rule="evenodd" clip-rule="evenodd" d="M5.2 16V8.69h2.35l.36-2.84H5.2V4.04c0-.83.2-1.39 1.34-1.39H8V.11C7.75.06 6.89 0 5.89 0 3.8 0 2.37 1.32 2.37 3.75v2.1H0V8.7h2.37V16H5.2z"/></symbol>

	<symbol xmlns="http://www.w3.org/2000/svg" viewBox="0 0 18 10" id="vk"><path fill-rule="evenodd" clip-rule="evenodd" d="M15.34 6.33l1.11.99c.25.24.68.6 1.08 1.12.64.84.7 1.41-.28 1.49-1.41-.05-3.37.14-3.73-.31C12.07 8.19 11 6.7 10.56 8.59c-.06.33-.07.66-.1.83 0 .3-.03.47-.73.55H9.7c-.29.04-.62.04-.97.01-1.38 0-2.72-.5-3.77-1.4a9.9 9.9 0 01-1.4-1.47c-.7-.86-1.32-1.79-1.86-2.76A62.18 62.18 0 01.1 1.24C.08 1.2.08 1.17.09 1.15-.08.7-.03.45.44.5c2.4-.02 3.17-.4 3.48.6 1.8 4.03 3.42 5.63 3.1.86C6.81.71 6.43.82 6.31.8c-1.09-.01.33-.8.5-.74 1.46 0 3.67-.4 3.73.86 0 1.63-.81 7.25 2.53 1.23l.38-.86c.24-.53.26-.88.82-.8h2.84c.08.04 1.38-.26.57 1.17-1.14 2.4-3.57 3.55-2.35 4.67h.01z"/></symbol>

	<symbol xmlns="http://www.w3.org/2000/svg" viewBox="0 0 16 13" id="twitter"><path fill-rule="evenodd" clip-rule="evenodd" d="M15.56.24a6.6 6.6 0 01-2.09.8 3.27 3.27 0 00-5.58 2.99A9.32 9.32 0 011.11.6a3.27 3.27 0 001.02 4.38 3.28 3.28 0 01-1.49-.41v.04a3.29 3.29 0 002.64 3.22c-.49.13-1 .15-1.49.06a3.29 3.29 0 003.07 2.28A6.59 6.59 0 010 11.53 9.3 9.3 0 005.03 13c6.04 0 9.34-5 9.34-9.34l-.01-.43A6.6 6.6 0 0016 1.53c-.59.27-1.22.45-1.88.53A3.3 3.3 0 0015.55.24h.01z"/></symbol>

	<symbol viewBox="0 0 24 24" xmlns="http://www.w3.org/2000/svg" id="telegram"><path d="M9.42 15.18l-.4 5.58c.57 0 .81-.24 1.1-.53l2.67-2.55 5.52 4.04c1.01.57 1.73.27 2-.93l3.62-16.97c.32-1.5-.54-2.08-1.53-1.71L1.11 10.26C-.34 10.82-.32 11.63.87 12l5.44 1.7 12.64-7.92c.6-.4 1.14-.18.7.22z"/></symbol>
</svg>